<?xml version="1.0" encoding="UTF-8" standalone="no"?>
<!DOCTYPE svg PUBLIC "-//W3C//DTD SVG 1.1//EN" "http://www.w3.org/Graphics/SVG/1.1/DTD/svg11.dtd">
<svg width="100%" height="100%" viewBox="0 0 1025 1024" version="1.1" xmlns="http://www.w3.org/2000/svg" xmlns:xlink="http://www.w3.org/1999/xlink" xml:space="preserve" xmlns:serif="http://www.serif.com/" style="fill-rule:evenodd;clip-rule:evenodd;stroke-linecap:round;stroke-linejoin:round;stroke-miterlimit:1.5;">
    <g transform="matrix(1,0,0,1,-1124,0)">
        <g id="Logo" transform="matrix(0.4,0,0,0.64,1124.11,0)">
            <rect x="0" y="0" width="2560" height="1600" style="fill:none;"/>
            <g transform="matrix(2.55195,0.492802,-0.908246,1.83723,295.488,-266.925)">
                <path d="M986.214,434.179C986.214,250.836 785.417,101.985 538.091,101.985C290.765,101.985 89.968,250.836 89.968,434.179C89.968,556.776 181.056,669.408 326.925,727.178L335.687,834.544L437.479,757.892C470.477,763.527 504.229,766.373 538.091,766.373C785.417,766.373 986.214,617.522 986.214,434.179Z" style="fill:white;stroke:black;stroke-width:21.69px;"/>
            </g>
            <g transform="matrix(1.16569,0,0,1.16569,113.631,-36.1224)">
                <g transform="matrix(3.63273,0,0,2.27046,-1061.77,-172.625)">
                    <path d="M418.89,355.634C415.187,355.493 411.461,351.134 407.711,342.555C405.226,337.024 403.093,330.649 401.312,323.43C397.843,323.946 392.172,324.462 384.297,324.977C376.89,325.493 371.218,326.102 367.281,326.805C365.125,331.962 361.375,339.719 356.031,350.079C353.968,353.454 351.109,355.141 347.453,355.141C344.875,355.141 342.554,354.262 340.492,352.505C338.429,350.747 337.398,348.509 337.398,345.79C337.398,343.399 340.82,335.29 347.664,321.462C347.008,320.009 346.726,318.649 346.82,317.384C347.008,315.134 349.281,313.376 353.64,312.11C360.297,300.579 367.703,288.626 375.859,276.251C387.578,258.485 394.797,249.602 397.515,249.602C402.672,249.602 406.117,252.719 407.851,258.954C408.789,263.969 410.265,271.493 412.281,281.524C415.14,295.024 418.633,310.469 422.758,327.86C423.086,329.173 424.281,332.266 426.343,337.141C428.031,341.173 428.875,344.196 428.875,346.212C428.875,348.93 427.855,351.204 425.816,353.032C423.777,354.86 421.468,355.727 418.89,355.634ZM392.664,283.493C389.008,289.774 383.968,298.329 377.547,309.157C379.656,308.688 382.937,308.313 387.39,308.032C392.64,307.704 395.945,307.446 397.304,307.259C396.179,301.165 394.633,293.243 392.664,283.493Z" style="fill-rule:nonzero;"/>
                </g>
                <g transform="matrix(3.63273,0,0,2.27046,-1061.77,-172.625)">
                    <path d="M498.906,358.516C493.14,358.516 489.929,355.68 489.273,350.009C488.617,345.18 487.961,340.329 487.304,335.454C486.601,330.298 486.25,325.446 486.25,320.899C486.25,319.68 486.332,317.594 486.496,314.641C486.66,311.688 486.742,309.602 486.742,308.384C486.742,308.055 486.789,307.223 486.883,305.887C486.976,304.552 487.023,303.462 487.023,302.618C487.023,298.727 486.015,296.782 484,296.782C479.687,296.782 475.457,299.302 471.308,304.341C467.16,309.38 463.914,315.766 461.57,323.501C461.476,325.048 461.265,327.11 460.937,329.688C460.656,331.798 460.515,333.86 460.515,335.876C460.515,337.188 460.668,339.169 460.972,341.817C461.277,344.466 461.429,346.446 461.429,347.759C461.429,350.43 460.504,352.645 458.652,354.403C456.8,356.161 454.468,357.04 451.656,357.04C448.843,357.04 446.523,356.161 444.695,354.403C442.867,352.645 441.953,350.43 441.953,347.759C441.953,346.446 441.812,344.466 441.531,341.817C441.25,339.169 441.109,337.188 441.109,335.876C441.109,331.376 441.437,325.118 442.093,317.102C442.75,309.087 443.078,302.829 443.078,298.329C443.078,296.923 442.996,294.825 442.832,292.036C442.668,289.247 442.586,287.173 442.586,285.813C442.586,283.188 443.535,281.02 445.433,279.309C447.332,277.598 449.664,276.743 452.429,276.743C458.57,276.743 461.851,280.423 462.273,287.782L462.343,288.555C469.187,281.665 476.406,278.219 484,278.219C492.859,278.219 498.976,281.923 502.351,289.329C504.601,294.298 505.726,301.727 505.726,311.618L505.726,316.61C505.679,318.766 505.656,320.29 505.656,321.18C505.656,324.837 506.16,329.548 507.168,335.313C508.175,341.079 508.679,345.766 508.679,349.376C508.679,352.001 507.742,354.18 505.867,355.915C503.992,357.649 501.672,358.516 498.906,358.516Z" style="fill-rule:nonzero;"/>
                </g>
                <g transform="matrix(3.63273,0,0,2.27046,-1061.77,-172.625)">
                    <path d="M534.906,269.009C531.906,269.009 529.304,268.001 527.101,265.985C524.898,263.969 523.797,261.509 523.797,258.602C523.797,255.696 524.898,253.235 527.101,251.219C529.304,249.204 531.906,248.196 534.906,248.196C537.906,248.196 540.496,249.204 542.675,251.219C544.855,253.235 545.945,255.696 545.945,258.602C545.945,261.509 544.855,263.969 542.675,265.985C540.496,268.001 537.906,269.009 534.906,269.009ZM540.883,320.548C540.883,323.219 540.965,327.509 541.129,333.415C541.293,339.321 541.375,343.61 541.375,346.282C541.375,349.001 540.461,351.239 538.633,352.997C536.804,354.755 534.484,355.634 531.672,355.634C528.859,355.634 526.539,354.755 524.711,352.997C522.883,351.239 521.968,349.001 521.968,346.282C521.968,343.61 521.886,339.321 521.722,333.415C521.558,327.509 521.476,323.219 521.476,320.548C521.476,316.376 521.711,311.149 522.179,304.868C522.648,298.587 522.883,293.36 522.883,289.188C522.883,286.469 523.797,284.231 525.625,282.473C527.453,280.716 529.773,279.837 532.586,279.837C535.398,279.837 537.718,280.716 539.547,282.473C541.375,284.231 542.289,286.469 542.289,289.188C542.289,293.36 542.054,298.587 541.586,304.868C541.117,311.149 540.883,316.376 540.883,320.548Z" style="fill-rule:nonzero;"/>
                </g>
                <g transform="matrix(3.63273,0,0,2.27046,-1061.77,-172.625)">
                    <path d="M577.445,291.298C584.523,283.094 591.226,278.993 597.554,278.993C604.773,278.993 610.07,281.735 613.445,287.219C616.304,284.688 619.468,282.79 622.937,281.524C626.406,280.259 630.156,279.626 634.187,279.626C643.375,279.626 649.609,284.196 652.89,293.337C653.547,295.212 654.554,301.563 655.914,312.391C657.226,319.985 658.914,332.641 660.976,350.36C661.164,353.032 660.25,355.235 658.234,356.969C656.218,358.704 653.851,359.571 651.133,359.571C645.742,359.571 642.578,356.899 641.64,351.555C640.797,346.727 639.929,339.907 639.039,331.094C638.101,321.438 637.328,314.594 636.718,310.563C635.453,302.173 633.836,297.977 631.867,297.977C630.789,297.977 628.328,299.055 624.484,301.212C620.64,303.368 617.828,305.219 616.047,306.766C616.047,312.11 616.679,319.798 617.945,329.829C619.258,340.094 619.914,347.782 619.914,352.891C619.914,355.563 619,357.79 617.172,359.571C615.343,361.352 613.023,362.243 610.211,362.243C607.398,362.243 605.078,361.352 603.25,359.571C601.422,357.79 600.508,355.563 600.508,352.891C600.508,347.548 599.933,339.684 598.785,329.302C597.636,318.919 597.062,311.055 597.062,305.712C597.062,302.712 596.804,300.321 596.289,298.54C590.851,301.68 585.39,306.907 579.906,314.219C579.672,314.548 579.273,315.04 578.711,315.696C578.523,325.165 578.429,332.594 578.429,337.985C578.429,339.298 578.383,341.067 578.289,343.294C578.195,345.52 578.148,347.173 578.148,348.251C578.148,350.782 577.117,352.774 575.054,354.227C573.179,355.587 570.859,356.266 568.093,356.266C564.109,356.266 561.414,354.532 560.008,351.063C559.023,348.719 558.531,344.993 558.531,339.884L558.531,313.727C558.531,311.384 558.437,307.95 558.25,303.427C558.062,298.903 557.968,295.469 557.968,293.126C557.968,288.954 558.718,285.18 560.218,281.805C562.047,277.587 564.625,275.477 567.953,275.477C570.578,275.477 572.922,276.497 574.984,278.536C577.047,280.575 578.078,282.813 578.078,285.251C578.078,284.266 577.867,286.282 577.445,291.298Z" style="fill-rule:nonzero;"/>
                </g>
                <g transform="matrix(3.63273,0,0,2.27046,-1061.77,-172.625)">
                    <path d="M706.539,356.759C695.336,356.759 686.172,354.087 679.047,348.743C671.172,342.837 667.234,334.516 667.234,323.782C667.234,311.923 670.351,301.891 676.586,293.688C683.523,284.594 692.875,280.048 704.64,280.048C712.797,280.048 719.57,281.36 724.961,283.985C732.039,287.454 735.578,292.844 735.578,300.157C735.578,305.313 732.695,309.884 726.929,313.868C724.304,315.696 719.031,318.368 711.109,321.884L687.414,332.36C689.664,334.798 692.383,336.626 695.57,337.844C698.758,339.063 702.414,339.673 706.539,339.673C712.82,339.673 718.14,338.384 722.5,335.805C726.39,333.509 729.508,332.36 731.851,332.36C736.726,332.36 739.164,334.727 739.164,339.462C739.164,344.805 735.25,349.165 727.422,352.54C720.859,355.352 713.898,356.759 706.539,356.759ZM704.64,297.063C700.281,297.063 696.554,298.516 693.461,301.423C690.367,304.329 687.883,308.688 686.008,314.501C691.304,312.204 696.578,309.93 701.828,307.68C708.156,304.821 713.195,302.173 716.945,299.735C713.804,297.954 709.703,297.063 704.64,297.063Z" style="fill-rule:nonzero;"/>
                </g>
            </g>
            <g transform="matrix(1.16569,0,0,1.16569,226.926,-8.20409)">
                <g transform="matrix(3.63273,0,0,2.27046,-1061.77,-172.625)">
                    <path d="M368.195,441.977C366.086,449.571 363.133,461.032 359.336,476.36C358.445,481.657 357.578,486.93 356.734,492.18C354.812,498.837 351.273,502.165 346.117,502.165C342.883,502.165 340.328,501.063 338.453,498.86C336.859,496.985 336.062,494.759 336.062,492.18C336.062,484.587 337.679,475.329 340.914,464.407C345.742,448.048 348.343,438.977 348.718,437.196C350.078,429.977 351.461,422.759 352.867,415.54C354.976,405.602 357.261,398.981 359.722,395.677C362.183,392.372 365.289,390.719 369.039,390.719C373.304,390.719 376.445,392.876 378.461,397.188C380.336,401.266 382.351,409.61 384.508,422.219C386.57,434.454 389.64,447.626 393.718,461.735C399.062,447.813 404.031,432.532 408.625,415.891L412.562,399.719C415.093,393.016 419.008,389.665 424.304,389.665C429.414,389.665 433.211,393.555 435.695,401.337C436.726,404.477 437.828,410.337 439,418.915C441.718,438.884 445.14,455.993 449.265,470.243C453.437,484.727 455.523,492.602 455.523,493.868C455.523,496.634 454.422,498.954 452.218,500.829C450.156,502.516 447.836,503.36 445.258,503.36C440.148,503.36 436.351,499.704 433.867,492.391L429.929,475.376C427.679,466.938 425.242,454.821 422.617,439.024C420.508,445.305 417.015,455.173 412.14,468.626L407.922,481.563C406.187,486.673 404.383,490.868 402.508,494.149C400.023,498.509 396.554,500.688 392.101,500.688C387.695,500.688 384.32,498.087 381.976,492.884L378.039,479.805C374.383,467.805 371.101,455.196 368.195,441.977Z" style="fill-rule:nonzero;"/>
                </g>
                <g transform="matrix(3.63273,0,0,2.27046,-1061.77,-172.625)">
                    <path d="M525.976,502.165C523.82,502.165 520.398,499.821 515.711,495.134C511.398,497.196 507.601,498.755 504.32,499.809C501.039,500.864 498.25,501.391 495.953,501.391C484.656,501.391 476.183,498.368 470.535,492.321C464.886,486.274 462.062,477.227 462.062,465.18C462.062,453.884 466.234,444.216 474.578,436.177C482.922,428.137 492.906,424.118 504.531,424.118C508.984,424.118 514.14,425.384 520,427.915C527.078,430.962 530.617,434.501 530.617,438.532C530.617,440.219 530.078,441.696 529,442.962C528.531,444.837 528.168,447.192 527.91,450.028C527.652,452.864 527.523,456.18 527.523,459.977C527.523,468.93 528.156,475.376 529.422,479.313C529.562,479.735 530.64,482.173 532.656,486.626C534.484,490.657 535.398,492.954 535.398,493.516C535.398,496.001 534.449,498.063 532.55,499.704C530.652,501.344 528.461,502.165 525.976,502.165ZM508.539,453.93C508.539,452.43 508.644,450.708 508.855,448.762C509.066,446.817 509.383,444.649 509.804,442.259C508.867,441.79 508.035,441.45 507.308,441.239C506.582,441.028 505.961,440.923 505.445,440.923C499.07,440.923 493.492,443.419 488.711,448.411C483.929,453.403 481.539,459.18 481.539,465.743C481.539,472.024 482.664,476.747 484.914,479.911C487.164,483.075 490.539,484.657 495.039,484.657C497.945,484.657 500.699,484.177 503.3,483.216C505.902,482.255 508.351,480.837 510.648,478.962C509.242,467.805 508.539,459.462 508.539,453.93Z" style="fill-rule:nonzero;"/>
                </g>
                <g transform="matrix(3.63273,0,0,2.27046,-1061.77,-172.625)">
                    <path d="M600.718,502.516C594.953,502.516 591.742,499.68 591.086,494.009C590.429,489.18 589.773,484.329 589.117,479.454C588.414,474.298 588.062,469.446 588.062,464.899C588.062,463.68 588.144,461.594 588.308,458.641C588.472,455.688 588.554,453.602 588.554,452.384C588.554,452.055 588.601,451.223 588.695,449.887C588.789,448.552 588.836,447.462 588.836,446.618C588.836,442.727 587.828,440.782 585.812,440.782C581.5,440.782 577.269,443.302 573.121,448.341C568.972,453.38 565.726,459.766 563.383,467.501C563.289,469.048 563.078,471.11 562.75,473.688C562.468,475.798 562.328,477.86 562.328,479.876C562.328,481.188 562.48,483.169 562.785,485.817C563.09,488.466 563.242,490.446 563.242,491.759C563.242,494.43 562.316,496.645 560.465,498.403C558.613,500.161 556.281,501.04 553.468,501.04C550.656,501.04 548.336,500.161 546.508,498.403C544.679,496.645 543.765,494.43 543.765,491.759C543.765,490.446 543.625,488.466 543.343,485.817C543.062,483.169 542.922,481.188 542.922,479.876C542.922,475.376 543.25,469.118 543.906,461.102C544.562,453.087 544.89,446.829 544.89,442.329C544.89,440.923 544.808,438.825 544.644,436.036C544.48,433.247 544.398,431.173 544.398,429.813C544.398,427.188 545.347,425.02 547.246,423.309C549.144,421.598 551.476,420.743 554.242,420.743C560.383,420.743 563.664,424.423 564.086,431.782L564.156,432.555C571,425.665 578.218,422.219 585.812,422.219C594.672,422.219 600.789,425.923 604.164,433.329C606.414,438.298 607.539,445.727 607.539,455.618L607.539,460.61C607.492,462.766 607.468,464.29 607.468,465.18C607.468,468.837 607.972,473.548 608.98,479.313C609.988,485.079 610.492,489.766 610.492,493.376C610.492,496.001 609.554,498.18 607.679,499.915C605.804,501.649 603.484,502.516 600.718,502.516Z" style="fill-rule:nonzero;"/>
                </g>
                <g transform="matrix(3.63273,0,0,2.27046,-1061.77,-172.625)">
                    <path d="M685.867,455.618C683.898,466.634 682.726,478.259 682.351,490.493C681.883,505.634 679.351,516.626 674.758,523.469C668.617,532.61 657.742,537.18 642.133,537.18C623.898,537.18 614.781,533.571 614.781,526.352C614.781,523.774 615.601,521.688 617.242,520.094C618.883,518.501 621.039,517.704 623.711,517.704C625.82,517.704 628.843,518.102 632.781,518.899C636.718,519.696 640.211,520.094 643.258,520.094C650.242,520.094 655.398,517.962 658.726,513.696C661.914,509.524 663.789,502.891 664.351,493.798C661.961,496.235 659.265,498.063 656.265,499.282C653.265,500.501 649.984,501.11 646.422,501.11C637.093,501.11 629.511,498.075 623.675,492.005C617.84,485.934 614.922,478.165 614.922,468.696C614.922,455.946 618.812,445.634 626.593,437.759C634.656,429.602 645.554,425.524 659.289,425.524C663.695,425.524 667.492,426.063 670.679,427.141C673.867,428.219 676.445,429.86 678.414,432.063C684.367,432.766 687.343,436.282 687.343,442.61C687.343,445.751 686.851,450.087 685.867,455.618ZM658.586,441.555C650.664,441.555 644.5,444.157 640.093,449.36C636.156,454.094 634.187,460.235 634.187,467.782C634.187,473.36 635.242,477.555 637.351,480.368C639.461,483.18 642.625,484.587 646.843,484.587C650.687,484.587 654.554,482.36 658.445,477.907C662.101,473.688 664.187,469.516 664.703,465.391C665.593,460.891 666.625,453.884 667.797,444.368C666.203,443.43 664.633,442.727 663.086,442.259C661.539,441.79 660.039,441.555 658.586,441.555Z" style="fill-rule:nonzero;"/>
                </g>
                <g transform="matrix(3.63273,0,0,2.27046,-1061.77,-172.625)">
                    <path d="M757.797,502.165C755.64,502.165 752.218,499.821 747.531,495.134C743.218,497.196 739.422,498.755 736.14,499.809C732.859,500.864 730.07,501.391 727.773,501.391C716.476,501.391 708.004,498.368 702.355,492.321C696.707,486.274 693.883,477.227 693.883,465.18C693.883,453.884 698.054,444.216 706.398,436.177C714.742,428.137 724.726,424.118 736.351,424.118C740.804,424.118 745.961,425.384 751.82,427.915C758.898,430.962 762.437,434.501 762.437,438.532C762.437,440.219 761.898,441.696 760.82,442.962C760.351,444.837 759.988,447.192 759.73,450.028C759.472,452.864 759.343,456.18 759.343,459.977C759.343,468.93 759.976,475.376 761.242,479.313C761.383,479.735 762.461,482.173 764.476,486.626C766.304,490.657 767.218,492.954 767.218,493.516C767.218,496.001 766.269,498.063 764.371,499.704C762.472,501.344 760.281,502.165 757.797,502.165ZM740.359,453.93C740.359,452.43 740.465,450.708 740.675,448.762C740.886,446.817 741.203,444.649 741.625,442.259C740.687,441.79 739.855,441.45 739.129,441.239C738.402,441.028 737.781,440.923 737.265,440.923C730.89,440.923 725.312,443.419 720.531,448.411C715.75,453.403 713.359,459.18 713.359,465.743C713.359,472.024 714.484,476.747 716.734,479.911C718.984,483.075 722.359,484.657 726.859,484.657C729.765,484.657 732.519,484.177 735.121,483.216C737.722,482.255 740.172,480.837 742.468,478.962C741.062,467.805 740.359,459.462 740.359,453.93ZM754.281,394.657C751.797,396.344 748.726,399.204 745.07,403.235C741.226,407.454 738.179,410.384 735.929,412.024C734.101,413.384 732.086,414.063 729.883,414.063C727.398,414.063 725.242,413.266 723.414,411.673C721.586,410.079 720.672,408.227 720.672,406.118C720.672,404.384 721.656,402.485 723.625,400.423C725.359,398.829 727.07,397.235 728.758,395.641C733.773,390.157 736.726,387.016 737.617,386.219C741.883,382.376 745.656,380.454 748.937,380.454C751.422,380.454 753.566,381.274 755.371,382.915C757.175,384.555 758.078,386.407 758.078,388.469C758.078,390.86 756.812,392.923 754.281,394.657Z" style="fill-rule:nonzero;"/>
                </g>
            </g>
            <g transform="matrix(30.693,0,0,19.1831,-12123.9,-9041.76)">
                <text x="426.591px" y="516.492px" style="font-family:'ComicSansMS-Bold', 'Comic Sans MS', cursive;font-weight:700;font-size:12px;">and</text>
            </g>
        </g>
    </g>
</svg>
